<svg xmlns="http://www.w3.org/2000/svg" xmlns:xlink="http://www.w3.org/1999/xlink" contentStyleType="text/css" data-diagram-type="DESCRIPTION" height="601px" preserveAspectRatio="none" style="width:536px;height:601px;background:#FFFFFF;" version="1.1" viewBox="0 0 536 601" width="536px" zoomAndPan="magnify"><?plantuml 1.2026.3beta6?><defs/><g><!--cluster Espace Directeur--><g class="cluster" data-qualified-name="Espace Directeur" data-source-line="6" id="ent0003"><rect fill="none" height="580" rx="2.5" ry="2.5" style="stroke:#181818;stroke-width:1;" width="340.38" x="182.47" y="7"/><text fill="#000000" font-family="sans-serif" font-size="14" font-weight="700" lengthAdjust="spacing" textLength="134.21" x="285.555" y="21.9951">Espace Directeur</text></g><!--entity UC1--><g class="entity" data-qualified-name="Espace Directeur.UC1" data-source-line="7" id="ent0004"><ellipse cx="352.6593" cy="68.9959" fill="#F1F1F1" rx="122.0293" ry="26.8059" style="stroke:#181818;stroke-width:0.5;"/><text fill="#000000" font-family="sans-serif" font-size="14" lengthAdjust="spacing" textLength="223.6787" x="240.8199" y="73.6443">Consulter ses classes assign&#233;es</text></g><!--entity UC2--><g class="entity" data-qualified-name="Espace Directeur.UC2" data-source-line="8" id="ent0005"><ellipse cx="352.6602" cy="354.004" fill="#F1F1F1" rx="132.1202" ry="28.824" style="stroke:#181818;stroke-width:0.5;"/><text fill="#000000" font-family="sans-serif" font-size="14" lengthAdjust="spacing" textLength="245.0479" x="230.1363" y="358.6525">Voir les stats globales d'une classe</text></g><!--entity UC3--><g class="entity" data-qualified-name="Espace Directeur.UC3" data-source-line="9" id="ent0006"><ellipse cx="352.6611" cy="253.0042" fill="#F1F1F1" rx="90.4711" ry="20.4942" style="stroke:#181818;stroke-width:0.5;"/><text fill="#000000" font-family="sans-serif" font-size="14" lengthAdjust="spacing" textLength="154.8066" x="275.2578" y="257.6527">Voir le d&#233;tail d'un test</text></g><!--entity UC4--><g class="entity" data-qualified-name="Espace Directeur.UC4" data-source-line="10" id="ent0007"><ellipse cx="352.6559" cy="545.9972" fill="#F1F1F1" rx="111.8359" ry="24.7672" style="stroke:#181818;stroke-width:0.5;"/><text fill="#000000" font-family="sans-serif" font-size="14" lengthAdjust="spacing" textLength="201.8447" x="251.7335" y="550.6456">Consulter le profil d'un &#233;l&#232;ve</text></g><!--entity UC5--><g class="entity" data-qualified-name="Espace Directeur.UC5" data-source-line="11" id="ent0008"><ellipse cx="352.6636" cy="443.9987" fill="#F1F1F1" rx="118.1936" ry="26.0387" style="stroke:#181818;stroke-width:0.5;"/><text fill="#000000" font-family="sans-serif" font-size="14" lengthAdjust="spacing" textLength="215.4961" x="244.9156" y="448.6472">Analyser l'&#233;volution d'un &#233;l&#232;ve</text></g><!--entity UC6--><g class="entity" data-qualified-name="Espace Directeur.UC6" data-source-line="12" id="ent0009"><ellipse cx="352.6616" cy="163.9983" fill="#F1F1F1" rx="154.1916" ry="33.2383" style="stroke:#181818;stroke-width:0.5;"/><text fill="#000000" font-family="sans-serif" font-size="14" lengthAdjust="spacing" textLength="291.1973" x="207.0629" y="168.6467">Visualiser les graphiques de performance</text></g><!--entity DIR--><g class="entity" data-qualified-name="DIR" data-source-line="4" id="ent0002"><ellipse cx="38.7339" cy="240.85" fill="#F1F1F1" rx="16" ry="16" style="stroke:#181818;stroke-width:0.5;"/><path d="M38.7339,260.85 C42.7339,260.85 45.7339,260.85 49.7339,256.85 C57.7339,256.85 65.7339,264.85 65.7339,272.85 L65.7339,276.85 C65.7339,280.85 61.7339,284.85 57.7339,284.85 L19.7339,284.85 C15.7339,284.85 11.7339,280.85 11.7339,276.85 L11.7339,272.85 C11.7339,264.85 19.7339,256.85 27.7339,256.85 C31.7339,260.85 34.7339,260.85 38.7339,260.85" fill="#F1F1F1" style="stroke:#181818;stroke-width:0.5;"/><text fill="#000000" font-family="sans-serif" font-size="14" lengthAdjust="spacing" textLength="65.4678" x="6" y="298.3451">Directeur</text></g><!--link DIR to UC1--><g class="link" data-entity-1="ent0002" data-entity-2="ent0004" data-link-type="dependency" data-source-line="15" id="lnk10"><path d="M64.62,224.1 C88.64,189.73 128.11,140.86 174.47,113 C197.02,99.45 217.7547,91.5371 243.3447,85.0371" fill="none" id="DIR-to-UC1" style="stroke:#181818;stroke-width:1;"/><polygon fill="#181818" points="249.16,83.56,239.4522,81.8988,244.3139,84.7909,241.4218,89.6526,249.16,83.56" style="stroke:#181818;stroke-width:1;"/></g><!--link DIR to UC2--><g class="link" data-entity-1="ent0002" data-entity-2="ent0005" data-link-type="dependency" data-source-line="16" id="lnk11"><path d="M71.9,264.42 C98.25,266.55 136.02,271.85 166.47,285 C170.55,286.76 170.55,288.9 174.47,291 C204.67,307.21 234.215,318.8314 265.275,329.1314" fill="none" id="DIR-to-UC2" style="stroke:#181818;stroke-width:1;"/><polygon fill="#181818" points="270.97,331.02,263.6865,324.3905,266.2241,329.4462,261.1684,331.9838,270.97,331.02" style="stroke:#181818;stroke-width:1;"/></g><!--link DIR to UC4--><g class="link" data-entity-1="ent0002" data-entity-2="ent0007" data-link-type="dependency" data-source-line="17" id="lnk12"><path d="M53.13,301.82 C72.33,351.89 112.38,438.43 174.47,488 C200.14,508.5 227.5355,520.2306 258.2255,528.8906" fill="none" id="DIR-to-UC4" style="stroke:#181818;stroke-width:1;"/><polygon fill="#181818" points="264,530.52,256.4245,524.2262,259.1879,529.1621,254.2519,531.9255,264,530.52" style="stroke:#181818;stroke-width:1;"/></g><!--link UC1 to UC2--><g class="link" data-entity-1="ent0004" data-entity-2="ent0005" data-link-type="dependency" data-source-line="19" id="lnk13"><path d="M237.21,77.84 C213.84,84.63 191.29,95.58 174.47,113 C92.19,198.16 128.82,292.02 137.92,303.5 C158.31,329.24 183.2865,342.0487 215.2665,349.4987" fill="none" id="UC1-to-UC2" style="stroke:#181818;stroke-width:1;stroke-dasharray:7,7;"/><polygon fill="#181818" points="221.11,350.86,213.2522,344.9224,216.2404,349.7256,211.4372,352.7137,221.11,350.86" style="stroke:#181818;stroke-width:1;"/><text fill="#000000" font-family="sans-serif" font-size="13" lengthAdjust="spacing" textLength="63.0068" x="102.47" y="299.5669">&#171;include&#187;</text></g><!--link UC2 to UC3--><g class="link" data-entity-1="ent0005" data-entity-2="ent0006" data-link-type="dependency" data-source-line="20" id="lnk14"><path d="M352.66,324.79 C352.66,308.47 352.66,294.53 352.66,279.81" fill="none" id="UC2-to-UC3" style="stroke:#181818;stroke-width:1;stroke-dasharray:7,7;"/><polygon fill="#181818" points="352.66,273.81,348.66,282.81,352.66,278.81,356.66,282.81,352.66,273.81" style="stroke:#181818;stroke-width:1;"/><text fill="#000000" font-family="sans-serif" font-size="13" lengthAdjust="spacing" textLength="61.1851" x="310.66" y="303.9069">&#171;extend&#187;</text></g><!--link UC2 to UC6--><g class="link" data-entity-1="ent0005" data-entity-2="ent0009" data-link-type="dependency" data-source-line="21" id="lnk15"><path d="M232.34,366.23 C196.91,363.17 161.4,352.3 137.92,325.5 C112.12,296.06 73.64,306.77 174.47,215 C189.58,201.25 202.5515,193.3118 221.9415,185.9418" fill="none" id="UC2-to-UC6" style="stroke:#181818;stroke-width:1;stroke-dasharray:7,7;"/><polygon fill="#181818" points="227.55,183.81,217.716,183.2686,222.8762,185.5865,220.5584,190.7467,227.55,183.81" style="stroke:#181818;stroke-width:1;"/><text fill="#000000" font-family="sans-serif" font-size="13" lengthAdjust="spacing" textLength="63.0068" x="102.47" y="321.5669">&#171;include&#187;</text></g><!--link UC4 to UC5--><g class="link" data-entity-1="ent0007" data-entity-2="ent0008" data-link-type="dependency" data-source-line="22" id="lnk16"><path d="M352.66,520.79 C352.66,505.45 352.66,491.89 352.66,476.35" fill="none" id="UC4-to-UC5" style="stroke:#181818;stroke-width:1;stroke-dasharray:7,7;"/><polygon fill="#181818" points="352.66,470.35,348.66,479.35,352.66,475.35,356.66,479.35,352.66,470.35" style="stroke:#181818;stroke-width:1;"/><text fill="#000000" font-family="sans-serif" font-size="13" lengthAdjust="spacing" textLength="63.0068" x="309.66" y="500.2069">&#171;include&#187;</text></g><?plantuml-src RP1DJWCn38NtEONLJLT5edyBL5L2BGks8DYRZ3kDI9CXTWeLuZxCEUPY9A4LKz5DVjvxdvtOqaP0F0HJRmKg4qYByKxngt4D1jm1Ql7XKGwM0D-9_OwKAXeCrYLECGm06TRt3qfb0LsTmeCxRb0Jz4AV2Y0oQUHahxpZQ8K2C35eYvptj9hQTIrngVcqkkuppzu4i2d6Wi9GM_-2-LeDewDZZICtli11rRM2nfOy2B4SmvFB3qj44_pc17IjxRxtfmRJFdFhq1uu8yEktNiRyn0lKREpPncEQ4tXqY_gWCtMlCNyeTIPmiQ77JfzOkVgIwaqPHYDbcKoV-TnxpnLAfbmLNIuWSN2E6rZHSkboaen9iMW3o5NzVNvFs3wQypEZHy0?></g></svg>